<svg xmlns="http://www.w3.org/2000/svg" viewBox="0 0 240.16 241.36"><defs><style>.a{fill:#207600;}.b{fill:#7ed130;}.c{fill:#28a948;}</style></defs><path class="a" d="M469,744.18c-7,9.88-9.79,21.32-9.79,33q0,60,0,120c-.94,32.39,27.59,60.8,60.1,60.84,45.84.06,91.67-.12,140.64,0,20.92,0,39.45-27.25,39.4-48.21-.11-45.45,0-90,0-134.78,0-32.14-28.32-58.24-60.62-58.3-32-.06-63.44-.08-95.15,0-18.88-.08-39.21-.49-55.76,9C482.08,729,472.77,738.8,469,744.18ZM604.65,913a79.93,79.93,0,0,1-62.54-5.49c-1.18-.62-1.21-.63-2,.48-7.92,9.85-13,25.08-27,27.26-15.18,3.17-29.31-12-25.51-27,2-13.88,19.37-17.25,26.62-25.88-31.89-43.54-5.93-111.29,46.88-122.4C660.4,739,700.14,878.65,604.65,913Zm53.1,26.17c-16.33.18-17.77-25.07-.59-26.17C674.65,912.5,675.27,939,657.75,939.18Z" transform="translate(-459.16 -716.67)"/><path class="b" d="M641.5,838.14c-.08,24.33-13.14,45.52-33.94,56.06a62.1,62.1,0,0,1-56.22-.24c-1.14-.58-1.15-.59-.42-1.64,2.64-3.74,5.16-7.57,7.75-11.36,1.85-2.71,3.81-5.35,5.68-8.05,1.32-1.89,2.56-3.83,3.87-5.73s2.74-3.87,4.12-5.81c.36-.51.72-1,1.06-1.54a.94.94,0,0,1,1.16-.41,21.74,21.74,0,0,0,8.65.29,22.9,22.9,0,1,0-22-8.93c.32.43.47.67-.1,1.05-2.72,1.8-5.4,3.66-8.11,5.49L543,864q-6.91,4.61-13.84,9.23c-.47.31-.71.36-1.06-.18a61.87,61.87,0,0,1,37.51-94.2,58.76,58.76,0,0,1,18.45-1.49,62,62,0,0,1,55.72,47.11A57.57,57.57,0,0,1,641.5,838.14Z" transform="translate(-459.16 -716.67)"/><path class="c" d="M559.17,868c-4.13-10.44-13.81,2.36-19.47,4.81-7.2,5-14.63,10.17-21.89,15-6.93,5.4-14.92,9-21.4,15.48-14.91,22.4,20.65,39.24,30.74,14.17,2.07-3.43,4.62-6.63,6.59-9.81,5-7.48,10.14-15.22,15.31-22.69C552.08,879.14,557.77,874.67,559.17,868Z" transform="translate(-459.16 -716.67)"/><path class="a" d="M570.09,837a9.45,9.45,0,1,1,9.35,9.54A9.46,9.46,0,0,1,570.09,837Z" transform="translate(-459.16 -716.67)"/></svg>